<svg xmlns="http://www.w3.org/2000/svg" version="1.1" xmlns:xlink="http://www.w3.org/1999/xlink" xmlns:svgjs="http://svgjs.dev/svgjs" width="1000" height="1000" viewBox="0 0 1000 1000"><rect width="1000" height="1000" fill="#282634"></rect><g transform="matrix(0.7,0,0,0.7,150,106.25)"><svg viewBox="0 0 320 360" data-background-color="#282634" preserveAspectRatio="xMidYMid meet" height="1125" width="1000" xmlns="http://www.w3.org/2000/svg" xmlns:xlink="http://www.w3.org/1999/xlink"><g id="tight-bounds" transform="matrix(1,0,0,1,0,0)"><svg viewBox="0 0 320 360" height="360" width="320"><g><svg></svg></g><g><svg viewBox="0 0 320 360" height="360" width="320"><g><path xmlns="http://www.w3.org/2000/svg" d="M320 187.111c0-45.764-20.238-86.866-52.203-114.908-28.043-31.964-69.145-52.203-114.908-52.203-84.302 0-152.889 68.587-152.889 152.889 0 45.753 20.231 86.848 52.185 114.891 28.043 31.975 69.152 52.22 114.926 52.22 0.299 0 0.59-0.021 0.889-0.021 0.299 0 0.59 0.021 0.889 0.021 83.456 0 151.111-67.655 151.111-151.111 0-0.299-0.021-0.59-0.021-0.889 0-0.299 0.021-0.59 0.021-0.889zM59.833 263.097c-15.093-21.255-24.071-47.143-24.256-75.097 0.48-72.928 59.492-131.943 132.423-132.423 27.954 0.185 53.845 9.163 75.097 24.256 24.366 23.627 39.57 56.64 39.57 93.056 0 71.559-58.219 129.778-129.778 129.778-36.416 0-69.429-15.204-93.056-39.57zM3.556 172.889c0-82.343 66.99-149.333 149.333-149.333 35.051 0 67.292 12.167 92.8 32.462-22.98-13.824-49.863-21.796-78.578-21.796-84.302 0-152.889 68.587-152.889 152.889 0 28.708 7.968 55.584 21.785 78.56-20.288-25.5-32.452-57.739-32.451-92.782zM167.111 318.667c-35.84 0-68.363-14.418-92.107-37.743 21.952 15.89 48.864 25.298 77.885 25.298 73.522 0 133.333-59.812 133.333-133.333 0-29.02-9.408-55.932-25.298-77.885 23.324 23.744 37.742 56.267 37.743 92.107 0 72.54-59.015 131.556-131.556 131.556z" fill="#ff4057" fill-rule="nonzero" stroke="none" stroke-width="1" stroke-linecap="butt" stroke-linejoin="miter" stroke-miterlimit="10" stroke-dasharray="" stroke-dashoffset="0" font-family="none" font-weight="none" font-size="none" text-anchor="none" style="mix-blend-mode: normal" data-fill-palette-color="tertiary"></path></g><g transform="matrix(1,0,0,1,64,117.3543127292095)"><svg viewBox="0 0 192 125.291374541581" height="125.291374541581" width="192"><g><svg viewBox="0 0 192 125.291374541581" height="125.291374541581" width="192"><g><svg viewBox="0 0 192 125.291374541581" height="125.291374541581" width="192"><g transform="matrix(1,0,0,1,0,74.62217532120906)"><svg viewBox="0 0 192 50.66919922037195" height="50.66919922037195" width="192"><g><svg viewBox="0 0 192 50.66919922037195" height="50.66919922037195" width="192"><g><svg viewBox="0 0 192 31.505043712172153" height="31.505043712172153" width="192"><g transform="matrix(1,0,0,1,0,0)"><svg width="192" viewBox="3.549999952316284 -36 223.02999877929688 36.599998474121094" height="31.505043712172153" data-palette-color="#ff4057"><path d="M25.8 0L3.55 0 3.55-35 25.8-35 25.8-30.7 8.85-30.7 8.85-19.8 24.3-19.8 24.3-15.6 8.85-15.6 8.85-4.3 25.8-4.3 25.8 0ZM41.8 0.6L41.8 0.6Q37.1 0.6 34.05-1.7 31-4 30.55-7.8L30.55-7.8 35.9-7.8Q36.3-6.1 37.8-4.88 39.3-3.65 41.75-3.65L41.75-3.65Q44.15-3.65 45.25-4.65 46.35-5.65 46.35-6.95L46.35-6.95Q46.35-8.85 44.82-9.53 43.3-10.2 40.6-10.75L40.6-10.75Q38.5-11.2 36.42-11.95 34.35-12.7 32.97-14.08 31.6-15.45 31.6-17.8L31.6-17.8Q31.6-21.05 34.1-23.23 36.6-25.4 41.1-25.4L41.1-25.4Q45.25-25.4 47.82-23.4 50.4-21.4 50.85-17.75L50.85-17.75 45.75-17.75Q45.5-19.35 44.27-20.25 43.05-21.15 41-21.15L41-21.15Q39-21.15 37.9-20.33 36.8-19.5 36.8-18.2L36.8-18.2Q36.8-16.9 38.32-16.15 39.85-15.4 42.35-14.8L42.35-14.8Q44.85-14.25 46.97-13.53 49.1-12.8 50.4-11.4 51.7-10 51.7-7.3L51.7-7.3Q51.75-3.9 49.07-1.65 46.4 0.6 41.8 0.6ZM71.05 0L66.94 0Q63.3 0 61.15-1.78 59-3.55 59-8.1L59-8.1 59-20.35 54.74-20.35 54.74-24.8 59-24.8 59.65-31.1 64.3-31.1 64.3-24.8 71.3-24.8 71.3-20.35 64.3-20.35 64.3-8.1Q64.3-6.05 65.17-5.28 66.05-4.5 68.19-4.5L68.19-4.5 71.05-4.5 71.05 0ZM79.74-29.5L79.74-29.5Q78.24-29.5 77.27-30.43 76.29-31.35 76.29-32.75L76.29-32.75Q76.29-34.15 77.27-35.08 78.24-36 79.74-36L79.74-36Q81.24-36 82.22-35.08 83.19-34.15 83.19-32.75L83.19-32.75Q83.19-31.35 82.22-30.43 81.24-29.5 79.74-29.5ZM82.39 0L77.09 0 77.09-24.8 82.39-24.8 82.39 0ZM94.69 0L89.39 0 89.39-24.8 94.09-24.8 94.54-21.3Q95.74-23.2 97.72-24.3 99.69-25.4 102.29-25.4L102.29-25.4Q108.19-25.4 110.49-20.75L110.49-20.75Q111.84-22.9 114.12-24.15 116.39-25.4 119.04-25.4L119.04-25.4Q123.69-25.4 126.34-22.6 128.99-19.8 128.99-14.25L128.99-14.25 128.99 0 123.69 0 123.69-13.7Q123.69-20.9 118.19-20.9L118.19-20.9Q115.39-20.9 113.62-18.8 111.84-16.7 111.84-12.8L111.84-12.8 111.84 0 106.54 0 106.54-13.7Q106.54-20.9 100.99-20.9L100.99-20.9Q98.24-20.9 96.47-18.8 94.69-16.7 94.69-12.8L94.69-12.8 94.69 0ZM143.59 0.6L143.59 0.6Q140.44 0.6 138.39-0.45 136.34-1.5 135.34-3.23 134.34-4.95 134.34-7L134.34-7Q134.34-10.6 137.14-12.7 139.94-14.8 145.14-14.8L145.14-14.8 151.64-14.8 151.64-15.25Q151.64-18.15 150.06-19.6 148.49-21.05 145.99-21.05L145.99-21.05Q143.79-21.05 142.16-19.98 140.54-18.9 140.19-16.8L140.19-16.8 134.89-16.8Q135.14-19.5 136.71-21.43 138.29-23.35 140.71-24.38 143.14-25.4 146.04-25.4L146.04-25.4Q151.24-25.4 154.09-22.68 156.94-19.95 156.94-15.25L156.94-15.25 156.94 0 152.34 0 151.89-4.25Q150.84-2.2 148.84-0.8 146.84 0.6 143.59 0.6ZM144.64-3.7L144.64-3.7Q146.79-3.7 148.26-4.73 149.74-5.75 150.56-7.45 151.39-9.15 151.59-11.2L151.59-11.2 145.69-11.2Q142.54-11.2 141.21-10.1 139.89-9 139.89-7.35L139.89-7.35Q139.89-5.65 141.16-4.67 142.44-3.7 144.64-3.7ZM177.14 0L173.04 0Q169.39 0 167.24-1.78 165.09-3.55 165.09-8.1L165.09-8.1 165.09-20.35 160.84-20.35 160.84-24.8 165.09-24.8 165.74-31.1 170.39-31.1 170.39-24.8 177.39-24.8 177.39-20.35 170.39-20.35 170.39-8.1Q170.39-6.05 171.26-5.28 172.14-4.5 174.29-4.5L174.29-4.5 177.14-4.5 177.14 0ZM193.78 0.6L193.78 0.6Q190.23 0.6 187.41-1.03 184.58-2.65 182.93-5.58 181.28-8.5 181.28-12.4L181.28-12.4Q181.28-16.3 182.96-19.23 184.63-22.15 187.48-23.78 190.33-25.4 193.83-25.4L193.83-25.4Q197.38-25.4 200.21-23.78 203.03-22.15 204.71-19.23 206.38-16.3 206.38-12.4L206.38-12.4Q206.38-8.5 204.71-5.58 203.03-2.65 200.18-1.03 197.33 0.6 193.78 0.6ZM193.78-3.95L193.78-3.95Q195.68-3.95 197.31-4.9 198.93-5.85 199.93-7.73 200.93-9.6 200.93-12.4L200.93-12.4Q200.93-15.2 199.96-17.07 198.98-18.95 197.36-19.9 195.73-20.85 193.83-20.85L193.83-20.85Q191.93-20.85 190.31-19.9 188.68-18.95 187.68-17.07 186.68-15.2 186.68-12.4L186.68-12.4Q186.68-9.6 187.68-7.73 188.68-5.85 190.28-4.9 191.88-3.95 193.78-3.95ZM217.43 0L212.13 0 212.13-24.8 216.88-24.8 217.33-20.1Q218.63-22.55 220.96-23.98 223.28-25.4 226.58-25.4L226.58-25.4 226.58-19.85 225.13-19.85Q222.93-19.85 221.21-19.13 219.48-18.4 218.46-16.68 217.43-14.95 217.43-11.9L217.43-11.9 217.43 0Z" opacity="1" transform="matrix(1,0,0,1,0,0)" fill="#ff4057" class="undefined-text-0" data-fill-palette-color="primary" id="text-0"></path></svg></g></svg></g><g transform="matrix(1,0,0,1,0,36.102385710827164)"><svg viewBox="0 0 192 14.566813509544788" height="14.566813509544788" width="192"><g transform="matrix(1,0,0,1,0,0)"><svg width="192" viewBox="1.350000023841858 -37 620.8500366210938 46.5" height="14.566813509544788" data-palette-color="#dcdcdc"><g class="undefined-text-1" data-fill-palette-color="secondary" id="text-1"><path d="M14.35 0L13.45 0Q12.95 0 12.65-0.3 12.35-0.6 12.35-1.1L12.35-1.1 12.35-32 2.45-32Q1.95-32 1.65-32.3 1.35-32.6 1.35-33.1L1.35-33.1 1.35-33.85Q1.35-34.4 1.65-34.7 1.95-35 2.45-35L2.45-35 25.35-35Q25.9-35 26.2-34.7 26.5-34.4 26.5-33.85L26.5-33.85 26.5-33.1Q26.5-32.6 26.2-32.3 25.9-32 25.35-32L25.35-32 15.5-32 15.5-1.1Q15.5-0.6 15.2-0.3 14.9 0 14.35 0L14.35 0ZM33.8 0L33 0Q32.5 0 32.2-0.3 31.9-0.6 31.9-1.1L31.9-1.1 31.9-24.85Q31.9-25.35 32.2-25.68 32.5-26 33-26L33-26 33.8-26Q34.3-26 34.62-25.68 34.95-25.35 34.95-24.85L34.95-24.85 34.95-22.55Q35.85-24.3 37.55-25.15 39.25-26 41.75-26L41.75-26 43.6-26Q44.1-26 44.4-25.7 44.7-25.4 44.7-24.9L44.7-24.9 44.7-24.2Q44.7-23.7 44.4-23.4 44.1-23.1 43.6-23.1L43.6-23.1 41.45-23.1Q38.45-23.1 36.7-21.35 34.95-19.6 34.95-16.6L34.95-16.6 34.95-1.1Q34.95-0.6 34.62-0.3 34.3 0 33.8 0L33.8 0ZM56.3 0.5L56.3 0.5Q53.9 0.5 51.87-0.5 49.85-1.5 48.6-3.18 47.35-4.85 47.35-6.95L47.35-6.95Q47.35-10.35 50.1-12.4 52.85-14.45 57.25-15.05L57.25-15.05 65.15-16.15 65.15-17.9Q65.15-20.55 63.52-22.08 61.9-23.6 58.35-23.6L58.35-23.6Q55.75-23.6 54.15-22.58 52.55-21.55 51.95-19.9L51.95-19.9Q51.7-19.15 51-19.15L51-19.15 50.2-19.15Q49.6-19.15 49.35-19.48 49.1-19.8 49.1-20.25L49.1-20.25Q49.1-20.95 49.62-22 50.15-23.05 51.25-24.08 52.35-25.1 54.1-25.8 55.85-26.5 58.35-26.5L58.35-26.5Q61.3-26.5 63.22-25.7 65.15-24.9 66.22-23.63 67.3-22.35 67.75-20.8 68.2-19.25 68.2-17.75L68.2-17.75 68.2-1.1Q68.2-0.6 67.9-0.3 67.59 0 67.09 0L67.09 0 66.25 0Q65.75 0 65.45-0.3 65.15-0.6 65.15-1.1L65.15-1.1 65.15-3.45Q64.55-2.55 63.45-1.65 62.35-0.75 60.62-0.13 58.9 0.5 56.3 0.5ZM56.8-2.4L56.8-2.4Q59.1-2.4 61-3.4 62.9-4.4 64.02-6.48 65.15-8.55 65.15-11.7L65.15-11.7 65.15-13.4 58.7-12.5Q54.6-11.95 52.5-10.6 50.4-9.25 50.4-7.2L50.4-7.2Q50.4-5.55 51.35-4.5 52.3-3.45 53.77-2.93 55.25-2.4 56.8-2.4ZM78.04 0L77.19 0Q76.69 0 76.39-0.3 76.09-0.6 76.09-1.1L76.09-1.1 76.09-24.9Q76.09-25.4 76.39-25.7 76.69-26 77.19-26L77.19-26 78.04-26Q78.54-26 78.84-25.7 79.14-25.4 79.14-24.9L79.14-24.9 79.14-22.55Q80.49-24.3 82.42-25.4 84.34-26.5 87.54-26.5L87.54-26.5Q90.94-26.5 93.22-25.03 95.49-23.55 96.62-21.03 97.74-18.5 97.74-15.3L97.74-15.3 97.74-1.1Q97.74-0.6 97.44-0.3 97.14 0 96.64 0L96.64 0 95.79 0Q95.29 0 94.99-0.3 94.69-0.6 94.69-1.1L94.69-1.1 94.69-15.05Q94.69-19.05 92.74-21.33 90.79-23.6 87.04-23.6L87.04-23.6Q83.49-23.6 81.32-21.33 79.14-19.05 79.14-15.05L79.14-15.05 79.14-1.1Q79.14-0.6 78.84-0.3 78.54 0 78.04 0L78.04 0ZM113.84 0.5L113.84 0.5Q111.24 0.5 109.37-0.2 107.49-0.9 106.29-1.88 105.09-2.85 104.52-3.8 103.94-4.75 103.89-5.25L103.89-5.25Q103.84-5.8 104.24-6.08 104.64-6.35 104.99-6.35L104.99-6.35 105.74-6.35Q106.04-6.35 106.27-6.25 106.49-6.15 106.84-5.7L106.84-5.7Q107.49-4.85 108.34-4.08 109.19-3.3 110.52-2.85 111.84-2.4 113.84-2.4L113.84-2.4Q116.84-2.4 118.79-3.55 120.74-4.7 120.74-6.95L120.74-6.95Q120.74-8.35 119.97-9.2 119.19-10.05 117.34-10.7 115.49-11.35 112.34-12.05L112.34-12.05Q109.19-12.8 107.52-13.85 105.84-14.9 105.24-16.28 104.64-17.65 104.64-19.25L104.64-19.25Q104.64-21 105.64-22.68 106.64-24.35 108.62-25.43 110.59-26.5 113.59-26.5L113.59-26.5Q116.04-26.5 117.77-25.85 119.49-25.2 120.59-24.28 121.69-23.35 122.22-22.45 122.74-21.55 122.79-21L122.79-21Q122.84-20.5 122.49-20.2 122.14-19.9 121.69-19.9L121.69-19.9 120.94-19.9Q120.54-19.9 120.29-20.08 120.04-20.25 119.84-20.55L119.84-20.55Q119.34-21.35 118.64-22.05 117.94-22.75 116.77-23.18 115.59-23.6 113.59-23.6L113.59-23.6Q110.59-23.6 109.14-22.38 107.69-21.15 107.69-19.25L107.69-19.25Q107.69-18.15 108.29-17.32 108.89-16.5 110.54-15.83 112.19-15.15 115.34-14.4L115.34-14.4Q118.54-13.7 120.39-12.68 122.24-11.65 123.02-10.25 123.79-8.85 123.79-6.95L123.79-6.95Q123.79-4.95 122.67-3.25 121.54-1.55 119.32-0.53 117.09 0.5 113.84 0.5ZM132.19 9.5L131.34 9.5Q130.84 9.5 130.54 9.2 130.24 8.9 130.24 8.4L130.24 8.4 130.24-24.9Q130.24-25.4 130.54-25.7 130.84-26 131.34-26L131.34-26 132.19-26Q132.69-26 132.99-25.7 133.29-25.4 133.29-24.9L133.29-24.9 133.29-22.55Q134.54-24.25 136.56-25.38 138.59-26.5 141.69-26.5L141.69-26.5Q144.64-26.5 146.64-25.48 148.64-24.45 149.89-22.75 151.14-21.05 151.74-18.95 152.34-16.85 152.39-14.65L152.39-14.65Q152.44-13.9 152.44-13 152.44-12.1 152.39-11.35L152.39-11.35Q152.34-9.15 151.74-7.05 151.14-4.95 149.89-3.25 148.64-1.55 146.64-0.53 144.64 0.5 141.69 0.5L141.69 0.5Q138.59 0.5 136.56-0.65 134.54-1.8 133.29-3.45L133.29-3.45 133.29 8.4Q133.29 8.9 132.99 9.2 132.69 9.5 132.19 9.5L132.19 9.5ZM141.39-2.4L141.39-2.4Q144.34-2.4 146.04-3.7 147.74-5 148.49-7.1 149.24-9.2 149.34-11.6L149.34-11.6Q149.39-13 149.34-14.4L149.34-14.4Q149.24-16.8 148.49-18.9 147.74-21 146.04-22.3 144.34-23.6 141.39-23.6L141.39-23.6Q138.54-23.6 136.79-22.25 135.04-20.9 134.21-18.88 133.39-16.85 133.29-14.8L133.29-14.8Q133.24-14.05 133.24-12.85 133.24-11.65 133.29-10.9L133.29-10.9Q133.34-8.9 134.21-6.95 135.09-5 136.86-3.7 138.64-2.4 141.39-2.4ZM166.24 0.5L166.24 0.5Q163.84 0.5 161.81-0.5 159.79-1.5 158.54-3.18 157.29-4.85 157.29-6.95L157.29-6.95Q157.29-10.35 160.04-12.4 162.79-14.45 167.19-15.05L167.19-15.05 175.09-16.15 175.09-17.9Q175.09-20.55 173.46-22.08 171.84-23.6 168.29-23.6L168.29-23.6Q165.69-23.6 164.09-22.58 162.49-21.55 161.89-19.9L161.89-19.9Q161.64-19.15 160.94-19.15L160.94-19.15 160.14-19.15Q159.54-19.15 159.29-19.48 159.04-19.8 159.04-20.25L159.04-20.25Q159.04-20.95 159.56-22 160.09-23.05 161.19-24.08 162.29-25.1 164.04-25.8 165.79-26.5 168.29-26.5L168.29-26.5Q171.24-26.5 173.16-25.7 175.09-24.9 176.16-23.63 177.24-22.35 177.69-20.8 178.14-19.25 178.14-17.75L178.14-17.75 178.14-1.1Q178.14-0.6 177.84-0.3 177.54 0 177.04 0L177.04 0 176.19 0Q175.69 0 175.39-0.3 175.09-0.6 175.09-1.1L175.09-1.1 175.09-3.45Q174.49-2.55 173.39-1.65 172.29-0.75 170.56-0.13 168.84 0.5 166.24 0.5ZM166.74-2.4L166.74-2.4Q169.04-2.4 170.94-3.4 172.84-4.4 173.96-6.48 175.09-8.55 175.09-11.7L175.09-11.7 175.09-13.4 168.64-12.5Q164.54-11.95 162.44-10.6 160.34-9.25 160.34-7.2L160.34-7.2Q160.34-5.55 161.29-4.5 162.24-3.45 163.71-2.93 165.19-2.4 166.74-2.4ZM187.93 0L187.13 0Q186.63 0 186.33-0.3 186.03-0.6 186.03-1.1L186.03-1.1 186.03-24.85Q186.03-25.35 186.33-25.68 186.63-26 187.13-26L187.13-26 187.93-26Q188.43-26 188.76-25.68 189.08-25.35 189.08-24.85L189.08-24.85 189.08-22.55Q189.98-24.3 191.68-25.15 193.38-26 195.88-26L195.88-26 197.73-26Q198.23-26 198.53-25.7 198.83-25.4 198.83-24.9L198.83-24.9 198.83-24.2Q198.83-23.7 198.53-23.4 198.23-23.1 197.73-23.1L197.73-23.1 195.58-23.1Q192.58-23.1 190.83-21.35 189.08-19.6 189.08-16.6L189.08-16.6 189.08-1.1Q189.08-0.6 188.76-0.3 188.43 0 187.93 0L187.93 0ZM213.08 0.5L213.08 0.5Q208.23 0.5 205.38-2.68 202.53-5.85 202.13-11L202.13-11Q202.08-11.75 202.08-13 202.08-14.25 202.13-15L202.13-15Q202.38-18.4 203.73-21 205.08-23.6 207.46-25.05 209.83-26.5 213.08-26.5L213.08-26.5Q216.58-26.5 219.03-24.95 221.48-23.4 222.81-20.5 224.13-17.6 224.13-13.6L224.13-13.6 224.13-12.85Q224.13-12.35 223.81-12.05 223.48-11.75 222.98-11.75L222.98-11.75 205.18-11.75Q205.18-11.75 205.18-11.55 205.18-11.35 205.18-11.25L205.18-11.25Q205.28-9 206.23-6.98 207.18-4.95 208.93-3.68 210.68-2.4 213.08-2.4L213.08-2.4Q215.23-2.4 216.66-3.05 218.08-3.7 218.93-4.48 219.78-5.25 220.03-5.65L220.03-5.65Q220.48-6.3 220.73-6.43 220.98-6.55 221.53-6.55L221.53-6.55 222.33-6.55Q222.78-6.55 223.11-6.28 223.43-6 223.38-5.55L223.38-5.55Q223.33-4.85 222.61-3.83 221.88-2.8 220.56-1.8 219.23-0.8 217.33-0.15 215.43 0.5 213.08 0.5ZM205.18-14.75L205.18-14.55 221.08-14.55 221.08-14.75Q221.08-17.25 220.13-19.25 219.18-21.25 217.38-22.43 215.58-23.6 213.08-23.6L213.08-23.6Q210.58-23.6 208.81-22.43 207.03-21.25 206.11-19.25 205.18-17.25 205.18-14.75L205.18-14.75ZM232.68 0L231.83 0Q231.33 0 231.03-0.3 230.73-0.6 230.73-1.1L230.73-1.1 230.73-24.9Q230.73-25.4 231.03-25.7 231.33-26 231.83-26L231.83-26 232.68-26Q233.18-26 233.48-25.7 233.78-25.4 233.78-24.9L233.78-24.9 233.78-22.55Q235.13-24.3 237.05-25.4 238.98-26.5 242.18-26.5L242.18-26.5Q245.58-26.5 247.85-25.03 250.13-23.55 251.25-21.03 252.38-18.5 252.38-15.3L252.38-15.3 252.38-1.1Q252.38-0.6 252.08-0.3 251.78 0 251.28 0L251.28 0 250.43 0Q249.93 0 249.63-0.3 249.33-0.6 249.33-1.1L249.33-1.1 249.33-15.05Q249.33-19.05 247.38-21.33 245.43-23.6 241.68-23.6L241.68-23.6Q238.13-23.6 235.95-21.33 233.78-19.05 233.78-15.05L233.78-15.05 233.78-1.1Q233.78-0.6 233.48-0.3 233.18 0 232.68 0L232.68 0ZM271.93 0L268.98 0Q266.38 0 264.88-1.1 263.38-2.2 262.78-4.1 262.18-6 262.18-8.35L262.18-8.35 262.18-23.1 258.28-23.1Q257.78-23.1 257.48-23.4 257.18-23.7 257.18-24.2L257.18-24.2 257.18-24.9Q257.18-25.4 257.48-25.7 257.78-26 258.28-26L258.28-26 262.18-26 262.18-34.4Q262.18-34.9 262.48-35.2 262.78-35.5 263.28-35.5L263.28-35.5 264.13-35.5Q264.63-35.5 264.93-35.2 265.23-34.9 265.23-34.4L265.23-34.4 265.23-26 271.43-26Q271.93-26 272.23-25.7 272.53-25.4 272.53-24.9L272.53-24.9 272.53-24.2Q272.53-23.7 272.23-23.4 271.93-23.1 271.43-23.1L271.43-23.1 265.23-23.1 265.23-8.55Q265.23-5.9 266.1-4.4 266.98-2.9 269.23-2.9L269.23-2.9 271.93-2.9Q272.43-2.9 272.73-2.6 273.03-2.3 273.03-1.8L273.03-1.8 273.03-1.1Q273.03-0.6 272.73-0.3 272.43 0 271.93 0L271.93 0ZM278.62 3.75L277.77 3.75Q277.37 3.75 277.2 3.45 277.02 3.15 277.07 2.7L277.07 2.7 278.02-3.3Q278.12-3.9 278.4-4.28 278.67-4.65 279.27-4.65L279.27-4.65 281.52-4.65Q281.87-4.65 282.07-4.4 282.27-4.15 282.27-3.85L282.27-3.85Q282.27-3.4 282.07-2.95L282.07-2.95 279.92 2.7Q279.72 3.2 279.45 3.48 279.17 3.75 278.62 3.75L278.62 3.75Z" fill="#ff4057" data-fill-palette-color="primary"></path><path d="M304.325 0.5L304.325 0.5Q299.775 0.5 296.905-1.28 294.025-3.05 292.625-6.1 291.225-9.15 291.075-13.05L291.075-13.05Q291.025-15.1 291.025-17.45 291.025-19.8 291.075-21.95L291.075-21.95Q291.225-25.85 292.625-28.93 294.025-32 296.905-33.75 299.775-35.5 304.325-35.5L304.325-35.5Q307.875-35.5 310.375-34.5 312.875-33.5 314.455-31.88 316.025-30.25 316.805-28.38 317.575-26.5 317.675-24.7L317.675-24.7Q317.725-24.25 317.405-23.98 317.075-23.7 316.625-23.7L316.625-23.7 315.625-23.7Q315.225-23.7 314.925-23.93 314.625-24.15 314.525-24.75L314.525-24.75Q313.575-29.2 310.955-30.85 308.325-32.5 304.325-32.5L304.325-32.5Q299.775-32.5 297.105-29.93 294.425-27.35 294.225-21.7L294.225-21.7Q294.075-17.6 294.225-13.3L294.225-13.3Q294.425-7.65 297.105-5.08 299.775-2.5 304.325-2.5L304.325-2.5Q308.325-2.5 310.955-4.15 313.575-5.8 314.525-10.25L314.525-10.25Q314.625-10.85 314.925-11.08 315.225-11.3 315.625-11.3L315.625-11.3 316.625-11.3Q317.075-11.3 317.405-11.03 317.725-10.75 317.675-10.3L317.675-10.3Q317.575-8.5 316.805-6.63 316.025-4.75 314.455-3.13 312.875-1.5 310.375-0.5 307.875 0.5 304.325 0.5ZM334.275 0.5L334.275 0.5Q330.675 0.5 328.245-1 325.825-2.5 324.545-5.1 323.275-7.7 323.175-10.9L323.175-10.9Q323.125-11.65 323.125-13 323.125-14.35 323.175-15.1L323.175-15.1Q323.275-18.35 324.545-20.93 325.825-23.5 328.245-25 330.675-26.5 334.275-26.5L334.275-26.5Q337.875-26.5 340.295-25 342.725-23.5 343.995-20.93 345.275-18.35 345.375-15.1L345.375-15.1Q345.425-14.35 345.425-13 345.425-11.65 345.375-10.9L345.375-10.9Q345.275-7.7 343.995-5.1 342.725-2.5 340.295-1 337.875 0.5 334.275 0.5ZM334.275-2.4L334.275-2.4Q337.775-2.4 339.975-4.65 342.175-6.9 342.325-11.15L342.325-11.15Q342.375-11.9 342.375-13 342.375-14.1 342.325-14.85L342.325-14.85Q342.175-19.15 339.975-21.38 337.775-23.6 334.275-23.6L334.275-23.6Q330.775-23.6 328.575-21.38 326.375-19.15 326.225-14.85L326.225-14.85Q326.175-14.1 326.175-13 326.175-11.9 326.225-11.15L326.225-11.15Q326.375-6.9 328.575-4.65 330.775-2.4 334.275-2.4ZM354.225 0L353.375 0Q352.875 0 352.575-0.3 352.275-0.6 352.275-1.1L352.275-1.1 352.275-24.9Q352.275-25.4 352.575-25.7 352.875-26 353.375-26L353.375-26 354.225-26Q354.725-26 355.025-25.7 355.325-25.4 355.325-24.9L355.325-24.9 355.325-22.55Q356.675-24.3 358.595-25.4 360.525-26.5 363.725-26.5L363.725-26.5Q367.125-26.5 369.395-25.03 371.675-23.55 372.795-21.03 373.925-18.5 373.925-15.3L373.925-15.3 373.925-1.1Q373.925-0.6 373.625-0.3 373.325 0 372.825 0L372.825 0 371.975 0Q371.475 0 371.175-0.3 370.875-0.6 370.875-1.1L370.875-1.1 370.875-15.05Q370.875-19.05 368.925-21.33 366.975-23.6 363.225-23.6L363.225-23.6Q359.675-23.6 357.495-21.33 355.325-19.05 355.325-15.05L355.325-15.05 355.325-1.1Q355.325-0.6 355.025-0.3 354.725 0 354.225 0L354.225 0ZM386.165 0L385.315 0Q384.815 0 384.515-0.3 384.215-0.6 384.215-1.1L384.215-1.1 384.215-23.1 379.765-23.1Q379.265-23.1 378.965-23.4 378.665-23.7 378.665-24.2L378.665-24.2 378.665-24.9Q378.665-25.4 378.965-25.7 379.265-26 379.765-26L379.765-26 384.215-26 384.215-28.85Q384.215-31.1 384.845-32.95 385.465-34.8 387.095-35.9 388.715-37 391.765-37L391.765-37 394.365-37Q394.865-37 395.165-36.7 395.465-36.4 395.465-35.9L395.465-35.9 395.465-35.2Q395.465-34.7 395.165-34.4 394.865-34.1 394.365-34.1L394.365-34.1 391.765-34.1Q389.115-34.1 388.195-32.68 387.265-31.25 387.265-28.6L387.265-28.6 387.265-26 393.865-26Q394.365-26 394.665-25.7 394.965-25.4 394.965-24.9L394.965-24.9 394.965-24.2Q394.965-23.7 394.665-23.4 394.365-23.1 393.865-23.1L393.865-23.1 387.265-23.1 387.265-1.1Q387.265-0.6 386.965-0.3 386.665 0 386.165 0L386.165 0ZM401.715 0L400.865 0Q400.365 0 400.065-0.3 399.765-0.6 399.765-1.1L399.765-1.1 399.765-24.9Q399.765-25.4 400.065-25.7 400.365-26 400.865-26L400.865-26 401.715-26Q402.215-26 402.515-25.7 402.815-25.4 402.815-24.9L402.815-24.9 402.815-1.1Q402.815-0.6 402.515-0.3 402.215 0 401.715 0L401.715 0ZM402.215-31.35L400.315-31.35Q399.815-31.35 399.515-31.65 399.215-31.95 399.215-32.45L399.215-32.45 399.215-34.35Q399.215-34.85 399.515-35.18 399.815-35.5 400.315-35.5L400.315-35.5 402.215-35.5Q402.715-35.5 403.045-35.18 403.365-34.85 403.365-34.35L403.365-34.35 403.365-32.45Q403.365-31.95 403.045-31.65 402.715-31.35 402.215-31.35L402.215-31.35ZM420.315 0.5L420.315 0.5Q417.415 0.5 415.385-0.55 413.365-1.6 412.115-3.35 410.865-5.1 410.285-7.25 409.715-9.4 409.615-11.6L409.615-11.6Q409.565-12.35 409.565-13 409.565-13.65 409.615-14.4L409.615-14.4Q409.715-16.6 410.285-18.75 410.865-20.9 412.115-22.65 413.365-24.4 415.385-25.45 417.415-26.5 420.315-26.5L420.315-26.5Q423.415-26.5 425.435-25.35 427.465-24.2 428.715-22.55L428.715-22.55 428.715-34.4Q428.715-34.9 429.015-35.2 429.315-35.5 429.815-35.5L429.815-35.5 430.665-35.5Q431.165-35.5 431.465-35.2 431.765-34.9 431.765-34.4L431.765-34.4 431.765-1.1Q431.765-0.6 431.465-0.3 431.165 0 430.665 0L430.665 0 429.815 0Q429.315 0 429.015-0.3 428.715-0.6 428.715-1.1L428.715-1.1 428.715-3.45Q427.465-1.75 425.435-0.63 423.415 0.5 420.315 0.5ZM420.615-2.4L420.615-2.4Q423.465-2.4 425.215-3.75 426.965-5.1 427.815-7.13 428.665-9.15 428.715-11.2L428.715-11.2Q428.765-11.95 428.765-13.15 428.765-14.35 428.715-15.1L428.715-15.1Q428.665-17.1 427.785-19.05 426.915-21 425.165-22.3 423.415-23.6 420.615-23.6L420.615-23.6Q417.715-23.6 415.985-22.3 414.265-21 413.515-18.9 412.765-16.8 412.665-14.4L412.665-14.4Q412.615-13 412.665-11.6L412.665-11.6Q412.765-9.2 413.515-7.1 414.265-5 415.985-3.7 417.715-2.4 420.615-2.4ZM449.565 0.5L449.565 0.5Q444.715 0.5 441.865-2.68 439.015-5.85 438.615-11L438.615-11Q438.565-11.75 438.565-13 438.565-14.25 438.615-15L438.615-15Q438.865-18.4 440.215-21 441.565-23.6 443.935-25.05 446.315-26.5 449.565-26.5L449.565-26.5Q453.065-26.5 455.515-24.95 457.965-23.4 459.285-20.5 460.615-17.6 460.615-13.6L460.615-13.6 460.615-12.85Q460.615-12.35 460.285-12.05 459.965-11.75 459.465-11.75L459.465-11.75 441.665-11.75Q441.665-11.75 441.665-11.55 441.665-11.35 441.665-11.25L441.665-11.25Q441.765-9 442.715-6.98 443.665-4.95 445.415-3.68 447.165-2.4 449.565-2.4L449.565-2.4Q451.715-2.4 453.135-3.05 454.565-3.7 455.415-4.48 456.265-5.25 456.515-5.65L456.515-5.65Q456.965-6.3 457.215-6.43 457.465-6.55 458.015-6.55L458.015-6.55 458.815-6.55Q459.265-6.55 459.585-6.28 459.915-6 459.865-5.55L459.865-5.55Q459.815-4.85 459.085-3.83 458.365-2.8 457.035-1.8 455.715-0.8 453.815-0.15 451.915 0.5 449.565 0.5ZM441.665-14.75L441.665-14.55 457.565-14.55 457.565-14.75Q457.565-17.25 456.615-19.25 455.665-21.25 453.865-22.43 452.065-23.6 449.565-23.6L449.565-23.6Q447.065-23.6 445.285-22.43 443.515-21.25 442.585-19.25 441.665-17.25 441.665-14.75L441.665-14.75ZM469.155 0L468.305 0Q467.805 0 467.505-0.3 467.205-0.6 467.205-1.1L467.205-1.1 467.205-24.9Q467.205-25.4 467.505-25.7 467.805-26 468.305-26L468.305-26 469.155-26Q469.655-26 469.955-25.7 470.255-25.4 470.255-24.9L470.255-24.9 470.255-22.55Q471.605-24.3 473.535-25.4 475.455-26.5 478.655-26.5L478.655-26.5Q482.055-26.5 484.335-25.03 486.605-23.55 487.735-21.03 488.855-18.5 488.855-15.3L488.855-15.3 488.855-1.1Q488.855-0.6 488.555-0.3 488.255 0 487.755 0L487.755 0 486.905 0Q486.405 0 486.105-0.3 485.805-0.6 485.805-1.1L485.805-1.1 485.805-15.05Q485.805-19.05 483.855-21.33 481.905-23.6 478.155-23.6L478.155-23.6Q474.605-23.6 472.435-21.33 470.255-19.05 470.255-15.05L470.255-15.05 470.255-1.1Q470.255-0.6 469.955-0.3 469.655 0 469.155 0L469.155 0ZM508.405 0L505.455 0Q502.855 0 501.355-1.1 499.855-2.2 499.255-4.1 498.655-6 498.655-8.35L498.655-8.35 498.655-23.1 494.755-23.1Q494.255-23.1 493.955-23.4 493.655-23.7 493.655-24.2L493.655-24.2 493.655-24.9Q493.655-25.4 493.955-25.7 494.255-26 494.755-26L494.755-26 498.655-26 498.655-34.4Q498.655-34.9 498.955-35.2 499.255-35.5 499.755-35.5L499.755-35.5 500.605-35.5Q501.105-35.5 501.405-35.2 501.705-34.9 501.705-34.4L501.705-34.4 501.705-26 507.905-26Q508.405-26 508.705-25.7 509.005-25.4 509.005-24.9L509.005-24.9 509.005-24.2Q509.005-23.7 508.705-23.4 508.405-23.1 507.905-23.1L507.905-23.1 501.705-23.1 501.705-8.55Q501.705-5.9 502.585-4.4 503.455-2.9 505.705-2.9L505.705-2.9 508.405-2.9Q508.905-2.9 509.205-2.6 509.505-2.3 509.505-1.8L509.505-1.8 509.505-1.1Q509.505-0.6 509.205-0.3 508.905 0 508.405 0L508.405 0ZM515.105 3.75L514.255 3.75Q513.855 3.75 513.675 3.45 513.505 3.15 513.555 2.7L513.555 2.7 514.505-3.3Q514.605-3.9 514.875-4.28 515.155-4.65 515.755-4.65L515.755-4.65 518.005-4.65Q518.355-4.65 518.555-4.4 518.755-4.15 518.755-3.85L518.755-3.85Q518.755-3.4 518.555-2.95L518.555-2.95 516.405 2.7Q516.205 3.2 515.925 3.48 515.655 3.75 515.105 3.75L515.105 3.75Z" fill="#dcdcdc" data-fill-palette-color="secondary"></path><path d="M530.96 0L530.06 0Q529.56 0 529.26-0.3 528.96-0.6 528.96-1.1L528.96-1.1 528.96-33.85Q528.96-34.4 529.26-34.7 529.56-35 530.06-35L530.06-35 549.36-35Q549.91-35 550.21-34.7 550.51-34.4 550.51-33.85L550.51-33.85 550.51-33.1Q550.51-32.6 550.21-32.3 549.91-32 549.36-32L549.36-32 532.11-32 532.11-18.55 548.36-18.55Q548.91-18.55 549.21-18.25 549.51-17.95 549.51-17.4L549.51-17.4 549.51-16.65Q549.51-16.15 549.21-15.85 548.91-15.55 548.36-15.55L548.36-15.55 532.11-15.55 532.11-1.1Q532.11-0.6 531.81-0.3 531.51 0 530.96 0L530.96 0ZM558.71 0L557.91 0Q557.41 0 557.11-0.3 556.81-0.6 556.81-1.1L556.81-1.1 556.81-24.85Q556.81-25.35 557.11-25.68 557.41-26 557.91-26L557.91-26 558.71-26Q559.21-26 559.53-25.68 559.86-25.35 559.86-24.85L559.86-24.85 559.86-22.55Q560.76-24.3 562.46-25.15 564.16-26 566.66-26L566.66-26 568.51-26Q569.01-26 569.31-25.7 569.61-25.4 569.61-24.9L569.61-24.9 569.61-24.2Q569.61-23.7 569.31-23.4 569.01-23.1 568.51-23.1L568.51-23.1 566.36-23.1Q563.36-23.1 561.61-21.35 559.86-19.6 559.86-16.6L559.86-16.6 559.86-1.1Q559.86-0.6 559.53-0.3 559.21 0 558.71 0L558.71 0ZM583.86 0.5L583.86 0.5Q579.01 0.5 576.16-2.68 573.31-5.85 572.91-11L572.91-11Q572.86-11.75 572.86-13 572.86-14.25 572.91-15L572.91-15Q573.16-18.4 574.51-21 575.86-23.6 578.23-25.05 580.61-26.5 583.86-26.5L583.86-26.5Q587.35-26.5 589.81-24.95 592.26-23.4 593.58-20.5 594.91-17.6 594.91-13.6L594.91-13.6 594.91-12.85Q594.91-12.35 594.58-12.05 594.26-11.75 593.76-11.75L593.76-11.75 575.96-11.75Q575.96-11.75 575.96-11.55 575.96-11.35 575.96-11.25L575.96-11.25Q576.06-9 577.01-6.98 577.96-4.95 579.71-3.68 581.46-2.4 583.86-2.4L583.86-2.4Q586.01-2.4 587.43-3.05 588.85-3.7 589.71-4.48 590.56-5.25 590.81-5.65L590.81-5.65Q591.26-6.3 591.51-6.43 591.76-6.55 592.31-6.55L592.31-6.55 593.1-6.55Q593.56-6.55 593.88-6.28 594.21-6 594.16-5.55L594.16-5.55Q594.1-4.85 593.38-3.83 592.66-2.8 591.33-1.8 590.01-0.8 588.1-0.15 586.21 0.5 583.86 0.5ZM575.96-14.75L575.96-14.55 591.85-14.55 591.85-14.75Q591.85-17.25 590.91-19.25 589.96-21.25 588.16-22.43 586.35-23.6 583.86-23.6L583.86-23.6Q581.36-23.6 579.58-22.43 577.81-21.25 576.88-19.25 575.96-17.25 575.96-14.75L575.96-14.75ZM611.15 0.5L611.15 0.5Q606.3 0.5 603.45-2.68 600.6-5.85 600.2-11L600.2-11Q600.15-11.75 600.15-13 600.15-14.25 600.2-15L600.2-15Q600.45-18.4 601.8-21 603.15-23.6 605.53-25.05 607.9-26.5 611.15-26.5L611.15-26.5Q614.65-26.5 617.1-24.95 619.55-23.4 620.88-20.5 622.2-17.6 622.2-13.6L622.2-13.6 622.2-12.85Q622.2-12.35 621.88-12.05 621.55-11.75 621.05-11.75L621.05-11.75 603.25-11.75Q603.25-11.75 603.25-11.55 603.25-11.35 603.25-11.25L603.25-11.25Q603.35-9 604.3-6.98 605.25-4.95 607-3.68 608.75-2.4 611.15-2.4L611.15-2.4Q613.3-2.4 614.73-3.05 616.15-3.7 617-4.48 617.85-5.25 618.1-5.65L618.1-5.65Q618.55-6.3 618.8-6.43 619.05-6.55 619.6-6.55L619.6-6.55 620.4-6.55Q620.85-6.55 621.18-6.28 621.5-6 621.45-5.55L621.45-5.55Q621.4-4.85 620.68-3.83 619.95-2.8 618.63-1.8 617.3-0.8 615.4-0.15 613.5 0.5 611.15 0.5ZM603.25-14.75L603.25-14.55 619.15-14.55 619.15-14.75Q619.15-17.25 618.2-19.25 617.25-21.25 615.45-22.43 613.65-23.6 611.15-23.6L611.15-23.6Q608.65-23.6 606.88-22.43 605.1-21.25 604.18-19.25 603.25-17.25 603.25-14.75L603.25-14.75Z" fill="#ff4057" data-fill-palette-color="tertiary"></path></g></svg></g></svg></g></svg></g></svg></g><g transform="matrix(1,0,0,1,56.25863633121065,0)"><svg viewBox="0 0 79.4827273375787 70.02483332255404" height="70.02483332255404" width="79.4827273375787"><g><svg xmlns="http://www.w3.org/2000/svg" xmlns:xlink="http://www.w3.org/1999/xlink" version="1.1" x="0" y="0" viewBox="6.300000190734863 11.5 87.39999389648438 77" style="enable-background:new 0 0 100 100;" xml:space="preserve" height="70.02483332255404" width="79.4827273375787" class="icon-icon-0" data-fill-palette-color="accent" id="icon-0"><path d="M72.3 12.3L72.3 12.3 72.3 12.3l-0.4-0.8H28.2L6.3 50l21.8 38.5h43.7L93.7 50 72.3 12.3zM33.3 25.3L9.9 47.7l18.6-32.8L33.3 25.3zM70.7 14.8l6.4 35.7L36.9 25.8 70.7 14.8zM35.5 27.3l41 25.2-41 23.3V27.3zM77 54.5l-7.2 30.8-32.6-8.1L77 54.5zM33.5 75L9.9 50.5l23.6-22.7V75zM33.2 77.6l-4.6 7.7L11.5 55.1 33.2 77.6zM35 78.6l31.4 7.9H30.2L35 78.6zM79.3 53.3l11.6-2.5L72.1 84 79.3 53.3zM90.7 48.9l-11.4 2.5-5.9-33.1L90.7 48.9zM35 24.3l-5-10.8h38.2L35 24.3z" fill="#dcdcdc" data-fill-palette-color="accent"></path></svg></g></svg></g><g></g></svg></g></svg></g></svg></g></svg></g><defs></defs></svg><rect width="320" height="360" fill="none" stroke="none" visibility="hidden"></rect></g></svg></g></svg>